<svg viewBox="0 0 395.65 39" xmlns="http://www.w3.org/2000/svg"><path d="m0 38.31h26.63v-8.49h-16.88v-6.45h15.02v-8h-15.02v-6.19h16.66v-8.48h-26.41z"/><path d="m28.45 38.31h24.93v-8.7h-15.07v-28.91h-9.86z"/><path d="m62.81 38.31h12.44q9.39-.12 14.42-5.14t5.09-13.45v-.64q-.05-8.42-5-13.34t-14.35-5.04h-12.6zm12.71-29a9 9 0 0 1 6.64 2.43q2.46 2.45 2.52 7.51v.48q-.06 5-2.52 7.46a9 9 0 0 1 -6.64 2.43h-2.85v-20.28z" fill-rule="evenodd"/><path d="m96.82 38.31h9.86v-37.61h-9.86z"/><path d="m108.29 38.31h10.14l2.19-6.77h12.06l2.25 6.77h10.36l-13.54-37.83h-10zm14.8-14.5l3.56-11 3.56 11z" fill-rule="evenodd"/><path d="m146.63 38.31h9.8v-11.66h3.51l6.53 11.66h11.12l-7.89-13.65a12.25 12.25 0 0 0 4.94-4.18 12.18 12.18 0 0 0  1.9-6.89v-.27a13.87 13.87 0 0 0 -.87-5.05 10.55 10.55 0 0 0 -2.47-3.76 12 12 0 0 0 -4.75-2.83 21.34 21.34 0 0 0 -6.76-1h-15.06zm9.81-19.31v-9.87h4.83a5.87 5.87 0 0 1 3.92 1.21 4.56 4.56 0 0 1  1.45 3.66v.11a4.71 4.71 0 0 1 -1.41 3.58 5.6 5.6 0 0 1 -3.91 1.31z" fill-rule="evenodd"/><path d="m179.55 38.31h9.86v-37.61h-9.86z"/><path d="m209.77 39a17.7 17.7 0 0 0 9.2-2.46 17 17 0 0 0  6.29-6.71 21.23 21.23 0 0 0  2.33-10v-.81a21.37 21.37 0 0 0 -2.3-10 16.73 16.73 0 0 0 -6.29-6.58 18.51 18.51 0 0 0 -18.41 0 17 17 0 0 0 -6.28 6.71 21.23 21.23 0 0 0 -2.33 10v .81a21.35 21.35 0 0 0 2.3 10 16.72 16.72 0 0 0  6.25 6.67 17.78 17.78 0 0 0  9.24 2.37zm.05-8.75a6.79 6.79 0 0 1 -5.57-2.8q-2.1-2.76-2.16-7.68v-.59q.05-4.92 2.13-7.65a6.93 6.93 0 0 1 11.12 0q2.1 2.76 2.16 7.68v.59q0 4.92-2.11 7.65a6.72 6.72 0 0 1 -5.57 2.77z" fill-rule="evenodd"/><path d="m247.85 38.52h9.48l12.94-37.82h-10.53l-7.01 23.42-7.07-23.42h-10.74z"/><path d="m261 38.31h10.14l2.19-6.77h12.06l2.25 6.77h10.36l-13.57-37.83h-10zm14.8-14.5l3.56-11 3.56 11z" fill-rule="evenodd"/><path d="m313.45 38.84q6.27-.05 10.07-3.17a10.84 10.84 0 0 0 3.9-8.65v-.11a9.22 9.22 0 0 0 -3.18-7.34 24 24 0 0 0 -8.65-4.27 22.61 22.61 0 0 1 -4.88-2.19 2.39 2.39 0 0 1 -1.21-2.11v0a2.15 2.15 0 0 1  .91-1.76 4.33 4.33 0 0 1  2.6-.71 12.5 12.5 0 0 1  4.65 1 18.93 18.93 0 0 1  4.28 2.47l5-7.2a20.48 20.48 0 0 0 -6.42-3.47 23.3 23.3 0 0 0 -7.29-1.17q-6.36.09-10 3.24a10.73 10.73 0 0 0 -3.7 8.36v.16a9.17 9.17 0 0 0 3.47 7.57 28 28 0 0 0  8.88 4.26 18.88 18.88 0 0 1  4.51 2 2.27 2.27 0 0 1  1.14 2v .05a2.35 2.35 0 0 1 -1 2 5.09 5.09 0 0 1 -3 .77 13.79 13.79 0 0 1 -5.43-1.18 21.31 21.31 0 0 1 -5-3.07l-5.26 7a22.76 22.76 0 0 0 7.35 4.2 25.28 25.28 0 0 0  8.26 1.34z"/><path d="m346.38 39a17 17 0 0 0 13.81-6.44l-6.25-6.23a12.86 12.86 0 0 1 -2.93 2.6 7.66 7.66 0 0 1 -4.09 1.07 7 7 0 0 1 -5.58-2.69q-2.18-2.67-2.25-7.73v-.21q.07-4.84 2.23-7.56a7 7 0 0 1 5.6-2.81 7.53 7.53 0 0 1  3.88 1 11.33 11.33 0 0 1  2.86 2.5l6.34-6.5a16.85 16.85 0 0 0 -5.54-4.3 18.88 18.88 0 0 0 -16.82.79 16.85 16.85 0 0 0 -6.33 6.65 21.36 21.36 0 0 0 -2.31 10.09v.64a21.6 21.6 0 0 0 2.29 10.13 16.49 16.49 0 0 0  6.21 6.58 17.34 17.34 0 0 0  8.88 2.42z"/><path d="m377.84 39a17.7 17.7 0 0 0 9.2-2.46 17 17 0 0 0  6.28-6.71 21.22 21.22 0 0 0  2.33-10v-.81a21.36 21.36 0 0 0 -2.3-10 16.72 16.72 0 0 0 -6.25-6.67 18.51 18.51 0 0 0 -18.41 0 17 17 0 0 0 -6.29 6.71 21.23 21.23 0 0 0 -2.33 10v .81a21.37 21.37 0 0 0 2.3 10 16.73 16.73 0 0 0  6.25 6.67 17.79 17.79 0 0 0  9.22 2.46zm.05-8.75a6.78 6.78 0 0 1 -5.57-2.8q-2.1-2.76-2.16-7.68v-.59q.05-4.92 2.13-7.65a6.93 6.93 0 0 1 11.12 0q2.1 2.76 2.16 7.68v.59q0 4.92-2.11 7.65a6.72 6.72 0 0 1 -5.57 2.77z" fill-rule="evenodd"/></svg>