<svg xmlns="http://www.w3.org/2000/svg" viewBox="0 0 1004.92 117.31"><defs><style>.a{stroke:#000;}</style></defs><title>dc</title><path class="a" d="M37.87,3.2c12.38,0,23.51,0,33.74,11C82.51,25.86,85.69,43,85.69,58.88c0,21.31-6.36,40.67-21.58,50.13-6.82,4.35-14.77,5.1-29.76,5.1H0.5V106H5.73c6,0,6.47-.6,6.47-11V22.26c0-10.35-.45-11-6.47-11H0.5V3.2H37.87ZM31.06,97.45c0,4.05,0,8.55,4.32,8.55h2.5c14,0,26.24-3.6,26.24-47.72,0-34.52-7.38-47-23.4-47H37c-4,0-5.91.3-5.91,9.3V97.45Z"/><path class="a" d="M126.75,114.11H82.9V106h6c6,0,6.47-.6,6.47-11V22.26c0-10.35-.45-11-6.47-11h-6V3.2h43.85v8.11h-6.13c-5.91,0-6.36.6-6.36,11V95c0,10.35.45,11,6.36,11h6.13v8.1Z"/><path class="a" d="M150.6,81.69l-1.82,5.85a35.32,35.32,0,0,0-1.7,9.16c0,8.55,7.5,9.3,9.66,9.3h2.16v8.1H127.31V106c6.7,0,9.09-3.15,13.29-15.76L169.91,0.5h8.18L208,97.3c2.61,8.25,4.32,8.7,8.75,8.7h2.16v8.1H177.18V106h5.34c2.16,0,6.7,0,6.7-4.5,0-1.8-1-5.1-1.59-7.2l-4-12.61H150.6ZM181,73L167.75,29.77,153.44,73H181Z"/><path class="a" d="M249.41,95c0,10.35.34,11,6.36,11h5.57v8.1H218.86V106h5.23c6,0,6.47-.6,6.47-11V22.26c0-10.35-.45-11-6.47-11h-5.23V3.2h42.48c9.88,0,15.11.3,21.13,3.45,6.82,3.6,12.5,12.61,12.5,24.76,0,4.35-.57,23.56-21,28.21v0.3c3.75,1.35,7.84,3.3,13.4,18.76l6.81,19.06c2.84,8.1,3.63,8.25,10.22,8.25v8.1H279.18L266,71.94c-2.16-7.05-4.09-9-11.47-9h-5.11V95Zm0-40.22h5.45c10,0,19.65-.15,19.65-22.66,0-19.66-10.79-20.86-17.83-20.86h-2.61c-3.07,0-4.66,1.5-4.66,8.25V54.83Z"/><path class="a" d="M348.68,114.11H304.84V106h6c6,0,6.47-.6,6.47-11V22.26c0-10.35-.45-11-6.47-11h-6V3.2h43.84v8.11h-6.13c-5.91,0-6.36.6-6.36,11V95c0,10.35.45,11,6.36,11h6.13v8.1Z"/><path class="a" d="M390.86,0.5c36.58,0,41.23,44,41.23,58.53,0,21.16-8.52,57.78-41.8,57.78-30.78,0-40.78-32.57-40.78-58.83C349.52,39.52,356.79.5,390.86,0.5Zm-0.11,108.21c14,0,19.76-15.46,19.76-52.38,0-33.92-6.48-47.72-20-47.72-15.45,0-19.42,20.86-19.42,49.83C371.1,86.79,374.28,108.71,390.75,108.71Z"/><path class="a" d="M495.07,3.2c12.38,0,23.51,0,33.74,11,10.9,11.71,14.08,28.81,14.08,44.72,0,21.31-6.36,40.67-21.58,50.13-6.81,4.35-14.77,5.1-29.76,5.1H457.7V106h5.23c6,0,6.47-.6,6.47-11V22.26c0-10.35-.46-11-6.47-11H457.7V3.2h37.37Zm-6.81,94.25c0,4.05,0,8.55,4.32,8.55h2.5c14,0,26.24-3.6,26.24-47.72,0-34.52-7.38-47-23.4-47h-3.75c-4,0-5.91.3-5.91,9.3V97.45Z"/><path class="a" d="M572.25,96.25c0,8.1.79,9.76,5.11,9.76h7.27c7.16,0,15.9,0,21.58-13.21a57.87,57.87,0,0,0,4.32-19.66h6.25l-1.48,41H541.58V106h5.22c6,0,6.36-.6,6.36-11V22.26c0-10.35-.34-11-6.36-11h-5.22V3.2h70.88L614.28,41H608c-3.29-27.16-11.13-29.71-25-29.71h-4.66c-4.43,0-6.13.6-6.13,7.8V53h2.84c9.65,0,14-6.15,14-20.41h6.25V83h-6.25c0-18-4.77-21.91-14.2-21.91h-2.61V96.25Z"/><path class="a" d="M715.44,41.62c-0.68-6.45-3.41-33-21-33-21.81,0-23.62,36.77-23.62,49.83,0,12.76.91,47.12,22.6,47.12,11,0,21-9.91,24.19-29.27h7c-1.14,13.51-9.88,40.52-35.44,40.52-26.47,0-40-25.36-40-55.68C649.22,40.87,655,.5,692.38.5c8.18,0,20.56,2.1,28.4,8.41l1.59,32.72h-6.93Z"/><path class="a" d="M742,81.69l-1.82,5.85a35.4,35.4,0,0,0-1.7,9.16c0,8.55,7.5,9.3,9.65,9.3h2.16v8.1H718.72V106c6.7,0,9.09-3.15,13.29-15.76L761.32,0.5h8.18l29.87,96.8c2.61,8.25,4.32,8.7,8.75,8.7h2.16v8.1H768.59V106h5.34c2.16,0,6.7,0,6.7-4.5,0-1.8-1-5.1-1.59-7.2l-4-12.61H742ZM772.45,73L759.16,29.77,744.85,73h27.6Z"/><path class="a" d="M843.52,3.2c12.38,0,23.51,0,33.73,11C888.16,25.86,891.34,43,891.34,58.88c0,21.31-6.36,40.67-21.58,50.13-6.82,4.35-14.77,5.1-29.76,5.1H806.15V106h5.23c6,0,6.47-.6,6.47-11V22.26c0-10.35-.46-11-6.47-11h-5.23V3.2h37.37ZM836.7,97.45c0,4.05,0,8.55,4.32,8.55h2.5c14,0,26.24-3.6,26.24-47.72,0-34.52-7.38-47-23.4-47h-3.75c-4,0-5.91.3-5.91,9.3V97.45Z"/><path class="a" d="M929.67,114.11H885.82V106h6c6,0,6.48-.6,6.48-11V22.26c0-10.35-.45-11-6.48-11h-6V3.2h43.85v8.11h-6.13c-5.91,0-6.36.6-6.36,11V95c0,10.35.46,11,6.36,11h6.13v8.1Z"/><path class="a" d="M936.59,114.11V106l46.12-94.7H971.58c-9,0-22.49,0-25.9,30.17h-6.25L941.25,3.2h63.16v8.11L958.06,106h12.61c13.74,0,22.83-.75,27.83-33h5.91l-1.48,41.12H936.59Z"/></svg>