<?xml version="1.0" encoding="utf-8"?>
<!-- Generator: Adobe Illustrator 23.0.3, SVG Export Plug-In . SVG Version: 6.00 Build 0)  -->
<svg version="1.1" id="Capa_1" xmlns="http://www.w3.org/2000/svg" xmlns:xlink="http://www.w3.org/1999/xlink" x="0px" y="0px"
	 viewBox="0 0 420.3 42" style="enable-background:new 0 0 420.3 42;" xml:space="preserve">
<g>
	<path d="M3.8,8.3H0.2V1.9h20.9c12.3,0,18.4,7.8,18.4,19.7c0,12.9-6.9,19.5-19.7,19.5H0.2v-6.4h3.6V8.3z M17.2,34.8
		c4,0,11.3,0,11.3-13.9c0-8-2.6-12.6-11-12.6h-3.2v26.5C14.3,34.8,17.2,34.8,17.2,34.8z M45.8,17.3h-3.1v-6h13.2v23.8h2.8v6h-16v-6
		h3.1V17.3L45.8,17.3z M45.8,0H56v8.4H45.8V0z M80.3,37L80.3,37c-2.6,4.1-4.7,5-9.4,5c-8.6,0-9.9-6.5-9.9-8.7
		c0-8.5,7.1-10.6,13.6-10.6c2.1,0,3.4,0.1,5,0.2c0-3.1,0-7.2-3.9-7.2c-3,0-3.5,2.2-3.9,5.3h-9.5c0.5-8,5.9-10.5,13.3-10.5
		c11.9,0,13.6,6.5,13.6,12v12.6h2.7v6H80.3V37z M77.2,27.6c-3.3,0-6.7,1-6.7,4.8c0,2,1.1,3.6,3.3,3.6c4.3,0,6-4.6,6-8.4H77.2z
		 M97.4,35.1h-3.1v6h17.1v-6h-3.8v-6.6c0-5.5,3.1-8.9,7-8.9c1.3,0,2,0.3,2.6,0.6v-9.4c-0.3-0.3-1.2-0.4-2.6-0.4
		c-4.1,0-6.7,3.1-7.6,6.9l0,0v-6H94.4v6h3.1L97.4,35.1L97.4,35.1z M121.7,17.3h-3.1v-6h13.2v23.8h2.8v6h-16v-6h3.1
		C121.7,35.1,121.7,17.3,121.7,17.3z M121.7,0h10.2v8.4h-10.2V0z M172.8,6.6h-3.3v-6H183v34.5h3.1v6h-12.6v-4.8h-0.1
		c-1.8,4.2-4.9,5.6-9.3,5.6c-8.8,0-11.7-7.9-11.7-15.8c0-7.7,2-15.8,11.9-15.8c3.6,0,7.3,1.3,8.4,5h0.1L172.8,6.6L172.8,6.6z
		 M162.9,26.2c0,5.3,0.7,9.4,4.9,9.4c4.5,0,5.3-6,5.3-9.4c0-3.6-0.7-9.5-5.3-9.5C163.5,16.8,162.9,20.5,162.9,26.2 M217.4,32.7
		c-1.3,7-7.4,9.3-13.8,9.3c-10.9,0-15.3-6.6-15.3-15.9s5.7-15.7,15.1-15.7c10.2,0,14.3,6.7,14.3,16.4c0,0.8-0.1,1.3-0.1,1.9h-19.2
		c0,3.2,0.6,7.3,5.1,7.3c3.3,0,4.3-2.2,4.3-3.2L217.4,32.7L217.4,32.7z M207.6,23.4c0-2.1-0.2-7-4.3-7c-4.6,0-4.8,5.7-4.8,7H207.6z
		 M263.2,5.7c-3-3.3-6.8-4.4-11-4.4c-12.3,0-17.3,8.9-17.3,19.8c0,13.5,6.6,20.7,17.8,20.7c4.1,0,8.8-0.7,10.7-4.7h0.1v4h8.4V27.4
		h2.8v-6.3h-16.1v6.3h4.1c0,3.3-2.1,7.7-8,7.7c-7.2,0-8.9-7.1-8.9-12.8s1.5-14.4,8.9-14.4c3.2,0,5.1,1.5,6.2,3.2s1.4,3.7,1.4,4.7
		h9.2V1.9h-8.4L263.2,5.7L263.2,5.7z M280,17.3h-3.1v-6h13.2v23.8h2.8v6h-16v-6h3.1V17.3L280,17.3z M280,0h10.2v8.4H280V0z
		 M298.2,35.1h-3.1v6h17.1v-6h-3.8v-6.6c0-5.5,3.1-8.9,7-8.9c1.3,0,2,0.3,2.6,0.6v-9.4c-0.3-0.3-1.2-0.4-2.6-0.4
		c-4.1,0-6.7,3.1-7.6,6.9h-0.1v-6h-12.6v6h3.1V35.1L298.2,35.1z M334.8,10.4c9.5,0,15.2,6.6,15.2,15.8c0,9.1-5.9,15.8-15.2,15.8
		c-9.3,0-15.2-6.7-15.2-15.8C319.6,17,325.3,10.4,334.8,10.4 M330.2,26.2c0,6.8,1.6,9.5,4.7,9.5s4.7-2.6,4.7-9.4s-1.6-9.5-4.7-9.5
		C331.7,16.8,330.2,19.4,330.2,26.2 M374,35.1h-2.7v6H387v-6h-2.8V18.6c0-6.6-5-8.2-9.1-8.2c-4.3,0-8,1.5-9.4,5.9h-0.1v-5H353v6h3.1
		v17.8H353v6h16v-6h-2.8V23.4c0-4.3,1.7-6.4,4.3-6.4c3.6,0,3.6,3.2,3.6,5.6L374,35.1L374,35.1z M408.7,37h-0.1c-2.5,4.1-4.6,5-9.3,5
		c-8.6,0-9.9-6.5-9.9-8.7c0-8.5,7.1-10.6,13.6-10.6c2.1,0,3.4,0.1,5,0.2c0-3.1,0-7.2-3.9-7.2c-3,0-3.5,2.2-3.9,5.3h-9.5
		c0.5-8,5.9-10.5,13.3-10.5c11.9,0,13.6,6.5,13.6,12v12.6h2.7v6h-11.6L408.7,37L408.7,37z M405.6,27.6c-3.3,0-6.7,1-6.7,4.8
		c0,2,1.1,3.6,3.3,3.6c4.3,0,6-4.6,6-8.4H405.6z"/>
</g>
</svg>
