<svg viewBox="0 0 308 40" xmlns="http://www.w3.org/2000/svg"><path d="m0 .77h30.94v9.01h-20.39v5.88h18.46v8.41h-18.46v6.1h20.66v9.06h-31.21z"/><path d="m35.55.77h10.66v29.12h18.63v9.34h-29.29z"/><path d="m74.35 20.11v-.11c0-11.21 8.57-20 20.22-20 7.86 0 12.91 3.3 16.32 8l-8 6.21c-2.2-2.69-4.73-4.51-8.41-4.51-5.39 0-9.18 4.62-9.18 10.22v.08c0 5.77 3.79 10.28 9.18 10.28 4 0 6.37-1.87 8.68-4.67l8 5.71c-3.63 5-8.52 8.68-17 8.68a19.53 19.53 0 0 1 -19.81-19.89z"/><path d="m141.94 20.11v-.11c0-5.6-4-10.39-9.84-10.39s-9.78 4.73-9.78 10.28v.11c0 5.55 4 10.39 9.89 10.39s9.73-4.73 9.73-10.28zm-30.5 0v-.11c0-11 8.9-20 20.77-20s20.66 8.85 20.66 19.89v.11c0 11-8.9 20-20.77 20s-20.66-8.85-20.66-19.89z"/><path d="m174.1 19.23c3.57 0 5.71-1.76 5.71-4.56v-.11c0-3.08-2.25-4.62-5.77-4.62h-7v9.29zm-17.75-18.46h18.19c5.88 0 9.95 1.54 12.53 4.12a12 12 0 0 1 3.41 9v .11a12.19 12.19 0 0 1 -7.91 11.87l9.18 13.41h-12.26l-7.75-11.65h-4.74v11.6h-10.65z"/><path d="m212.46 19.23c3.57 0 5.71-1.76 5.71-4.56v-.11c0-3.08-2.25-4.62-5.77-4.62h-7v9.29zm-17.75-18.46h18.19c5.88 0 9.95 1.54 12.53 4.12a12 12 0 0 1 3.41 9v .11a12.19 12.19 0 0 1 -7.91 11.87l9.18 13.41h-12.27l-7.74-11.69h-4.73v11.64h-10.66z"/><path d="m232.99.77h30.94v9.01h-20.39v5.88h18.47v8.41h-18.47v6.1h20.66v9.06h-31.21z"/><path d="m297.07 20.11v-.11c0-5.6-4-10.39-9.84-10.39s-9.78 4.73-9.78 10.28v.11c0 5.55 4 10.39 9.89 10.39s9.73-4.73 9.73-10.28zm-30.5 0v-.11c0-11 8.9-20 20.77-20s20.66 8.85 20.66 19.89v.11c0 11-8.9 20-20.77 20s-20.66-8.85-20.66-19.89z"/></svg>