<svg xmlns="http://www.w3.org/2000/svg" xmlns:xlink="http://www.w3.org/1999/xlink" viewBox="0 0 708.89 107.8"><defs><style>.a{fill:none;}.b{fill:#0070ae;}.c{clip-path:url(#a);}.d{fill:#231f20;fill-rule:evenodd;}</style><clipPath id="a" transform="translate(0 0)"><rect class="a" x="0.06" width="708.83" height="107.74"/></clipPath></defs><title>ElDiarioCordoba</title><path class="b" d="M360.9,106.4c-4.47,0-8.37-.19-12-0.32v-43c3.39-.13,8.62-0.32,13.92-0.32,13.35,0,21.85,5.94,21.85,21.08,0,14.82-9.71,22.55-23.76,22.55m1.34-36.67c-1.92,0-3.71.06-5,.19V99a30.15,30.15,0,0,0,4.54.32c8.11,0,14-4.6,14-14.82C375.72,75.23,372.08,69.74,362.24,69.74Z" transform="translate(0 0)"/><polyline class="b" points="391.49 106.15 391.49 63.03 414.94 63.03 414.94 69.99 399.8 69.99 399.8 80.6 414.17 80.6 414.17 87.37 399.8 87.37 399.8 99.06 414.94 99.06 414.94 106.15 391.49 106.15"/><path class="b" d="M451.54,106.66c-15.08,0-19.93-10-19.93-20.7,0-13.67,7.15-23.32,21.59-23.32a33.69,33.69,0,0,1,9.2,1.28l-1.15,7.6a25,25,0,0,0-8.5-1.47c-8,0-12,6.07-12,14.5,0,9.33,3.9,14.56,12.58,14.56a20.65,20.65,0,0,0,8.18-1.79l1.28,7.35a32.62,32.62,0,0,1-11.24,2" transform="translate(0 0)"/><path class="b" d="M485.39,106.85c-13.16,0-19.61-8.37-19.61-21.72,0-14.24,9.52-22.8,21.08-22.8s19.61,6.9,19.61,21.65c0,14.24-9.39,22.87-21.08,22.87m0.7-37c-5.94,0-11.43,4.73-11.43,14.44,0,9.13,3.58,15.08,11.31,15.08,5.62,0,11.63-4.34,11.63-14.69C497.59,75,493.51,69.8,486.1,69.8Zm-3.39-9.39-1.34-4.47,13.22-4.79L496.51,57Z" transform="translate(0 0)"/><path class="b" d="M533.68,106.15L522.06,88.33h-0.7v17.82h-8.3V63c3.39-.19,7.41-0.26,12.39-0.26,9.52,0,15.65,3.32,15.65,12.14,0,6.39-4.6,11-10.6,12,1.15,1.6,2.43,3.19,3.45,4.73l10,14.5H533.68m-9.07-36.6a23.65,23.65,0,0,0-3.26.19V82.19c0.58,0.06,1.73.13,3,.13,5,0,8-2.55,8-6.58S529.85,69.55,524.61,69.55Z" transform="translate(0 0)"/><path class="b" d="M561.66,106.4c-4.47,0-8.37-.19-12-0.32v-43c3.39-.13,8.62-0.32,13.92-0.32,13.35,0,21.85,5.94,21.85,21.08,0,14.82-9.71,22.55-23.76,22.55M563,69.74c-1.92,0-3.7.06-5,.19V99a30.14,30.14,0,0,0,4.53.32c8.11,0,14-4.6,14-14.82C576.48,75.23,572.84,69.74,563,69.74Z" transform="translate(0 0)"/><path class="b" d="M609.5,106.85c-13.16,0-19.61-8.37-19.61-21.72,0-14.24,9.52-22.8,21.08-22.8s19.61,6.9,19.61,21.65c0,14.24-9.39,22.87-21.08,22.87m0.7-37c-5.94,0-11.43,4.73-11.43,14.44,0,9.13,3.58,15.07,11.31,15.07,5.62,0,11.63-4.34,11.63-14.69C621.7,75,617.61,69.8,610.21,69.8Z" transform="translate(0 0)"/><path class="b" d="M649.81,106.28c-2.55,0-7.22-.13-12.65-0.13V63.1c3.64-.19,9.07-0.32,14.31-0.32,9.26,0,14.43,3.77,14.43,10.67a10.12,10.12,0,0,1-6.52,9.65v0.13a9.57,9.57,0,0,1,7.73,9.64c0,6.26-4.28,13.41-17.31,13.41m0.32-36.79c-1.79,0-3.19.06-4.66,0.13V80.85c1,0.06,2,.06,3.39.06,5.68,0,8.24-2.3,8.24-6.13C657.09,71.59,655.24,69.48,650.13,69.48Zm-1,17.63c-0.64,0-2.75,0-3.64.06V99.25a39,39,0,0,0,4.6.26c5.43,0,8.18-2.56,8.18-6.45C658.24,88.84,654.53,87.11,649.1,87.11Z" transform="translate(0 0)"/><path class="b" d="M699.7,106.15l-3-8.82H680.4l-3,8.82H669L684.11,63h9.39l15.39,43.12h-9.2m-9.39-27.66a54.8,54.8,0,0,1-1.79-5.94h-0.07c-0.51,1.85-1,3.83-1.72,5.94l-4.28,12.26h12.14Z" transform="translate(0 0)"/><g class="c"><path class="d" d="M297.65,91.09V69.83c-7.74,1.42-8.88,1.7-11.8,3-5.07,2.41-7.36,5.81-7.36,10.91,0,6,3.68,10.06,9.06,10.06,2.85,0,5-.57,10.1-2.69M281.21,42.47V57.21H266.29c-5.39,0-7.52-1.56-7.52-5.53,0-9.92,14.3-17.7,32.55-17.7,9.83,0,17.44,2.4,22.22,7.21S319.21,50,319.21,64v31.9l1.4,1.84,7,0.71V106H299.2L297.4,98c-10.4,7.23-16.49,9.77-23.16,9.77-10.66,0-18.18-8.06-18.18-19.4,0-6.8,2.63-12.76,7.1-16.59,3.89-3.26,12.92-6.24,34.5-11.34V56.36C297.65,46.44,292.86,42.47,281.21,42.47Z" transform="translate(0 0)"/></g><polyline class="d" points="239.88 0 258.94 0 238.33 26.79 227.23 26.79 239.88 0"/><polyline class="d" points="237.3 33.98 244.78 33.98 244.78 95.76 246.44 97.6 254.22 98.31 254.22 105.8 214.3 105.8 214.3 98.31 221.83 97.6 223.23 95.76 223.23 49.13 215.07 49.13 215.07 42.33 237.3 33.98"/><path class="d" d="M153.73,96.34H159c18.54,0,27.42-12.44,27.42-38.3,0-25.16-9-37.59-27.42-37.59h-5.28V96.34M120.7,11h44.23c29.82,0,46.71,17.38,46.71,47.48s-16.77,47.34-46.71,47.34H120.7V97.61l8.55-.57,2-2.69V21.86l-2-2.12-8.55-.57V11Z" transform="translate(0 0)"/><polyline class="d" points="68.68 106.78 68.68 99.69 75.97 98.72 77.61 96.91 77.61 18.23 68.93 18.23 68.93 11.56 91.98 0 98.3 0 98.3 96.91 100.06 98.72 107.73 99.42 107.73 106.78 68.68 106.78"/><g class="c"><path class="d" d="M22.7,62H43.49c-0.38-14-2.93-19.12-9.82-19.12-7.4,0-10.58,5.67-11,19.12M65.81,86.25V99.19c-11.1,5.5-19.77,7.64-30.61,7.64C13.52,106.83,0,93.67,0,71,0,48.5,13.9,34,35.2,34c19.51,0,31,13,31,34.9v2h-44C23.08,86.39,29.33,94,41.45,94,49.74,94,56.63,91.77,65.81,86.25Z" transform="translate(0 0)"/></g></svg>