<svg xmlns="http://www.w3.org/2000/svg" viewBox="0 0 580.57 134.06"><defs><style>.a{fill:#00898b;}.b{fill:#fff;}</style></defs><title>Sin título-4</title><path d="M0.94,98.93V1.73H55.66V20.59H23.4v19.3H53.93V58.18H23.4V79.63H55.66v19.3H0.94Z" transform="translate(0)"/><path d="M106.49,98.93a63.77,63.77,0,0,1,.86-11.23l-0.29-.14c-4.32,7.49-12.24,13-23.62,13-16,0-21.31-10.37-21.31-22.75V27.36h22v45.5c0,5.76,1.58,9.22,6.62,9.22,7.78,0,14.11-9.65,14.11-20V27.36h22V98.93H106.49Z" transform="translate(0)"/><path d="M206.87,100.51c-20.74,0-34.42-10.22-34.42-35.71,0-23.33,16-39,37.87-39s34.27,12.1,34.27,35.86C244.6,84.82,228.47,100.51,206.87,100.51Zm2-56c-6.91,0-13.68,5.33-13.68,17.86,0,13.1,4.18,19.15,13.25,19.15,7.92,0,13.39-6.62,13.39-18.58C221.84,50.69,218,44.5,208.88,44.5Z" transform="translate(0)"/><path d="M277.86,100.08a39,39,0,0,1-7.34-.58v33.55H248.63V27.36h20.16a87.51,87.51,0,0,1-.58,10.22h0.29c4-7.49,11.09-11.81,21.6-11.81,17,0,26.06,12.67,26.06,33.41C316.16,83.66,303.78,100.08,277.86,100.08Zm5.33-56.16c-7.49,0-12.67,8.64-12.67,20.59V82.08a30.09,30.09,0,0,0,7.63.86c8.5,0,14.83-5.47,14.83-21.46C293,49.54,289.81,43.92,283.19,43.92Z" transform="translate(0)"/><path d="M358.93,98.93a68.79,68.79,0,0,1,.58-10.8h-0.14c-3.46,7.49-12,12.38-21.89,12.38-13.68,0-20.88-9.36-20.88-21.17,0-18,16.85-25.34,40.32-25.34V51.12c0-5.9-3.31-8.78-12.82-8.78a49.64,49.64,0,0,0-19.73,4.75L320.63,30a89,89,0,0,1,27.22-4.46c24.19,0,31.1,9.22,31.1,24.91V81.94c0,5.18.14,11.38,0.58,17H358.93Zm-2-31.1c-15.41,0-19.58,3.89-19.58,9.22,0,3.74,2.59,6.77,7.2,6.77,7.34,0,12.38-6.62,12.38-13.68v-2.3Z" transform="translate(0)"/><path class="a" d="M408.64,100.66a91.89,91.89,0,0,1-23.18-2.59l2.16-21.31a56.59,56.59,0,0,0,21.6,4.32c7.2,0,13.25-3,13.25-10.08,0-16.56-38.88-8.06-38.88-40.61C383.58,12.1,397.55,0,422,0a86.24,86.24,0,0,1,17.71,1.87l-2,19.58A49.66,49.66,0,0,0,421,18.58c-9.22,0-13.39,3.74-13.39,9.22,0,15.12,39.6,9.5,39.6,40.32C447.23,86.69,431.53,100.66,408.64,100.66Z" transform="translate(0)"/><path class="a" d="M500.36,99.07a66.8,66.8,0,0,1,.72-11.38l-0.14-.14c-4.46,7.49-12.38,13-23.76,13-16,0-21.17-10.37-21.17-22.75V44.06c-3.46-.58-8.35-1.15-12.53-1.44V28.51a250.1,250.1,0,0,1,34.42-1.3V72.86c0,5.76,1.58,9.22,6.62,9.22,7.78,0,14.26-9.65,14.26-20V27.36h21.89V82.22c3.46,0.58,8.35,1.15,12.53,1.44V97.78A226.87,226.87,0,0,1,500.36,99.07Z" transform="translate(0)"/><path class="a" d="M579.56,47.38c-12.24-2.88-18.43,4.18-18.43,22V98.93h-22V44.06c-3.46-.58-8.35-1.15-12.53-1.44V28.51a228.85,228.85,0,0,1,33-1.3,89,89,0,0,1-1,12.82h0.29c3.74-8.5,10.51-15.12,21.74-14.26Z" transform="translate(0)"/><path d="M173.2,47.26c-12-2.74-18.29,4.18-18.29,22V98.81H133V27.24h20.45a88.65,88.65,0,0,1-1,12.67h0.29c3.74-8.5,10.51-15,21.46-14.4Z" transform="translate(0)"/><rect class="b" y="121.72" width="580.57" height="12.34"/></svg>