<svg viewBox="0 0 163.43 55.06" xmlns="http://www.w3.org/2000/svg"><path d="m0 1.06h14.67v19.82h18.84v-19.82h14.67v52.95h-14.67v-20.12h-18.84v20.12h-14.67z"/><path d="m97.78 27.68v-.15c0-7.71-5.45-14.3-13.54-14.3s-13.46 6.5-13.46 14.14v.15c0 7.64 5.52 14.3 13.61 14.3s13.39-6.5 13.39-14.14zm-42 0v-.15c.02-15.2 12.22-27.53 28.61-27.53s28.44 12.18 28.44 27.38v.15c0 15.2-12.25 27.53-28.59 27.53s-28.44-12.17-28.44-27.38z"/><path d="m128.63 34.19l-20.19-33.13h16.71l10.89 19.29 10.97-19.29h16.42l-20.12 32.9v20.05h-14.68z"/></svg>