<svg xmlns="http://www.w3.org/2000/svg" xmlns:xlink="http://www.w3.org/1999/xlink" viewBox="0 0 744.37 79.94"><defs><style>.a,.d{fill:none;}.b{clip-path:url(#a);}.c,.e{fill:#004e94;}.d{stroke:#004e94;stroke-miterlimit:3.86;stroke-width:2.64px;}.e,.h{fill-rule:evenodd;}.f{clip-path:url(#b);}.g,.h{fill:#211915;}</style><clipPath id="a" transform="translate(-0.62 -0.15)"><rect class="a" width="320.03" height="81.28"/></clipPath><clipPath id="b" transform="translate(-0.62 -0.15)"><rect class="a" x="328.53" y="8.81" width="420.89" height="72.46"/></clipPath></defs><title>HuelvaInfor</title><g class="b"><polyline class="c" points="50.07 78.45 50.07 47.15 16.05 47.15 16.05 78.45 1.32 78.45 1.32 1.67 16.05 1.67 16.05 33.53 50.07 33.53 50.07 1.67 64.8 1.67 64.8 78.45 50.07 78.45"/><polygon class="d" points="50.07 78.45 50.07 47.15 16.05 47.15 16.05 78.45 1.32 78.45 1.32 1.67 16.05 1.67 16.05 33.53 50.07 33.53 50.07 1.67 64.8 1.67 64.8 78.45 50.07 78.45"/><path class="c" d="M124.41,77.2V21.1h-14V54.88l-1.87,2.05a59.72,59.72,0,0,1-7.76,7.38q-3.22,2.41-5.48,2.4a3.45,3.45,0,0,1-3.45-2.19q-1-2.24-1-7.35V21.1h-14V62.37q0,8,3.68,11.88t11.05,3.92a19.24,19.24,0,0,0,9.56-2.38,35.36,35.36,0,0,0,9.3-8v9.4h14" transform="translate(-0.62 -0.15)"/><path class="d" d="M124.42,77.2V21.1h-14V54.88l-1.87,2.05a59.73,59.73,0,0,1-7.76,7.38q-3.22,2.41-5.48,2.4a3.45,3.45,0,0,1-3.46-2.19q-1-2.23-1-7.35V21.1h-14V62.37q0,7.95,3.68,11.88t11,3.92a19.24,19.24,0,0,0,9.56-2.38,35.35,35.35,0,0,0,9.3-8v9.4h14Z" transform="translate(-0.62 -0.15)"/><path class="e" d="M169.14,42.34h-21.3q0.91-5.74,3.91-8.84a10.34,10.34,0,0,1,7.68-3.13q4.87-.06,7.18,2.76t2.53,9.2m14,29.44L178,60.8q-3.64,2.38-5.86,3.52a24.8,24.8,0,0,1-4.55,1.8,19.06,19.06,0,0,1-3.26.75,22.52,22.52,0,0,1-3.17.21A14.64,14.64,0,0,1,154,65.24a13.15,13.15,0,0,1-5-4.92,11.67,11.67,0,0,1-1.33-3.56,36.79,36.79,0,0,1-.54-5.37h36V45.23Q183,33.64,176.81,26.67t-16.45-7.14a25.55,25.55,0,0,0-19.47,8.91q-7.55,8.63-7.8,22.21,0.13,13,7.11,20.49t19.22,7.63a41.87,41.87,0,0,0,9.17-1,43,43,0,0,0,8.73-3Q179.28,73.92,183.17,71.78Z" transform="translate(-0.62 -0.15)"/><path class="d" d="M183.17,71.78l-5.14-11q-3.64,2.38-5.86,3.52a24.86,24.86,0,0,1-4.55,1.8,19.14,19.14,0,0,1-3.26.75,22.55,22.55,0,0,1-3.18.21A14.65,14.65,0,0,1,154,65.23a13.15,13.15,0,0,1-5-4.92,11.67,11.67,0,0,1-1.33-3.56,36.84,36.84,0,0,1-.54-5.38h36V45.23Q183,33.64,176.81,26.67t-16.45-7.14a25.55,25.55,0,0,0-19.47,8.91q-7.55,8.63-7.8,22.21,0.13,13,7.11,20.49t19.22,7.63a41.86,41.86,0,0,0,9.17-1,43,43,0,0,0,8.73-3Q179.28,73.92,183.17,71.78Z" transform="translate(-0.62 -0.15)"/><path class="d" d="M169.14,42.34h-21.3q0.91-5.74,3.91-8.84a10.33,10.33,0,0,1,7.68-3.13q4.88-.06,7.18,2.76T169.14,42.34Z" transform="translate(-0.62 -0.15)"/><rect class="c" x="191.5" y="1.32" width="13.91" height="75.73"/><rect class="d" x="191.5" y="1.32" width="13.91" height="75.73"/><polyline class="c" points="267.22 20.95 252.59 20.95 240.42 58.11 240.07 60.52 239.72 58.11 228.72 20.95 214.09 20.95 232.35 77.05 246.27 77.05 267.22 20.95"/><polygon class="d" points="267.22 20.95 252.59 20.95 240.42 58.11 240.07 60.52 239.72 58.11 228.72 20.95 214.09 20.95 232.35 77.05 246.27 77.05 267.22 20.95"/><path class="e" d="M299,63.21q-1.44,1.14-2.21,1.68a11.81,11.81,0,0,1-1.42.86A13.28,13.28,0,0,1,292.43,67a10.25,10.25,0,0,1-2.82.44,5.55,5.55,0,0,1-4.12-1.54A5.93,5.93,0,0,1,284,61.65a9.17,9.17,0,0,1,.22-2.08,19.51,19.51,0,0,1,.83-2.63L299,52.23v11m18.36,3.86q-2.73-.15-3.57-1.37T313,60.8V37.38q0-9.19-4.55-13.54t-14.28-4.31q-11.13,0-17.12,4.07A13.17,13.17,0,0,0,271,35.09a10.1,10.1,0,0,0,.13,1.89,13.59,13.59,0,0,0,.57,2l13.34-3q-0.18-.52-0.26-0.81a2.24,2.24,0,0,1-.09-0.63,4.43,4.43,0,0,1,2.22-3.58,9.79,9.79,0,0,1,5.38-1.49,5.89,5.89,0,0,1,5,2.14Q299,33.71,299,38.22v4.71l-15.45,4.59a26.59,26.59,0,0,0-8.84,4.09,13,13,0,0,0-4.27,6.17,19.83,19.83,0,0,0-.69,2.79,17.3,17.3,0,0,0-.25,2.88,14.85,14.85,0,0,0,4.43,10.94q4.31,4.14,11.37,4.25A18.39,18.39,0,0,0,293,77a27.78,27.78,0,0,0,7.47-5.24,10.1,10.1,0,0,0,4.14,4.93q2.45,1.3,7.56,1.22h2.93Z" transform="translate(-0.62 -0.15)"/><path class="d" d="M317.33,67.08q-2.73-.16-3.57-1.37T313,60.8V37.38q0-9.19-4.55-13.54t-14.28-4.31q-11.13,0-17.12,4.07A13.17,13.17,0,0,0,271,35.08a10,10,0,0,0,.13,1.89,13.33,13.33,0,0,0,.57,2l13.34-3c-0.12-.35-0.21-0.62-0.26-0.81a2.19,2.19,0,0,1-.09-0.63,4.43,4.43,0,0,1,2.22-3.58,9.79,9.79,0,0,1,5.38-1.49,5.89,5.89,0,0,1,5,2.14Q299,33.71,299,38.22v4.71l-15.45,4.59a26.59,26.59,0,0,0-8.84,4.09,13,13,0,0,0-4.27,6.17,20,20,0,0,0-.69,2.79,17.32,17.32,0,0,0-.25,2.88,14.85,14.85,0,0,0,4.43,10.94q4.31,4.14,11.37,4.25A18.39,18.39,0,0,0,293,77a27.77,27.77,0,0,0,7.48-5.24,10.09,10.09,0,0,0,4.14,4.93q2.45,1.3,7.56,1.22h2.92Z" transform="translate(-0.62 -0.15)"/><path class="d" d="M299,63.21q-1.44,1.14-2.21,1.68a11.77,11.77,0,0,1-1.42.86A13.32,13.32,0,0,1,292.43,67a10.23,10.23,0,0,1-2.82.44,5.55,5.55,0,0,1-4.13-1.54A5.94,5.94,0,0,1,284,61.64a9.17,9.17,0,0,1,.22-2.08,19.54,19.54,0,0,1,.83-2.63L299,52.23v11Z" transform="translate(-0.62 -0.15)"/></g><g class="f"><rect class="g" x="333.36" y="18.01" width="7.48" height="60.27"/><path class="g" d="M390.09,78.43v-31q0-5.81-2.69-8.66T379.23,36a17,17,0,0,0-5.8,1.06,17.35,17.35,0,0,0-5.25,3,31.39,31.39,0,0,0-2.52,2.25q-1.12,1.11-3.14,3.41V37.06h-6.84V78.43h6.84V53.13a57.59,57.59,0,0,1,9.08-8.51q3.74-2.6,6.82-2.55a5.66,5.66,0,0,1,2.58.58,3.51,3.51,0,0,1,1.62,1.61,7.86,7.86,0,0,1,.49,1.84,21.91,21.91,0,0,1,.15,3V78.43h6.84" transform="translate(-0.62 -0.15)"/><path class="g" d="M430.19,12.95a22,22,0,0,0-4.46-1.55,21.34,21.34,0,0,0-4.67-.46q-8.24.1-13,5.21t-4.82,14.06v6.85l-6.94,1.73v4h6.94V78.43h6.84V42.81h9.77V37.06H410.1V31.95q0-7.39,2.61-11t7.89-3.61a14.81,14.81,0,0,1,3.07.31,29.76,29.76,0,0,1,3.69,1.06l2.83-5.75" transform="translate(-0.62 -0.15)"/><path class="h" d="M453.49,57.79a17.59,17.59,0,0,1-3.74,11.15,11.53,11.53,0,0,1-18.38,0,17.52,17.52,0,0,1-3.75-11.15,17.52,17.52,0,0,1,3.75-11.15,11.52,11.52,0,0,1,18.38,0,17.58,17.58,0,0,1,3.74,11.15m7.48,0a22.76,22.76,0,0,0-2.8-11A21.53,21.53,0,0,0,450.84,39a19.07,19.07,0,0,0-20.53,0A21.5,21.5,0,0,0,423,46.81a22.8,22.8,0,0,0,0,21.91,21.65,21.65,0,0,0,7.35,7.87,19,19,0,0,0,20.53,0,21.68,21.68,0,0,0,7.33-7.87A22.69,22.69,0,0,0,461,57.79Z" transform="translate(-0.62 -0.15)"/><path class="g" d="M492,38.8a11.84,11.84,0,0,0-2.75-2.1,5.55,5.55,0,0,0-2.55-.73,7.13,7.13,0,0,0-4.64,1.83,40.88,40.88,0,0,0-6.14,6.76V37.06H469.1V78.43h6.84V53.77a45.5,45.5,0,0,1,5.4-8.1q2.45-2.75,4.37-2.76a2.44,2.44,0,0,1,1.26.38,11.41,11.41,0,0,1,1.67,1.27L492,38.8" transform="translate(-0.62 -0.15)"/><path class="g" d="M558.29,78.43v-31q0-5.81-2.69-8.66T547.43,36a17,17,0,0,0-5.8,1.06,17.36,17.36,0,0,0-5.25,3,31.43,31.43,0,0,0-2.54,2.26q-1.13,1.13-3.22,3.49-0.33-5-3-7.42T519.85,36A17,17,0,0,0,514,37a17.36,17.36,0,0,0-5.25,3,31.4,31.4,0,0,0-2.52,2.25q-1.12,1.11-3.14,3.41V37.06h-6.84V78.43h6.84V53.13a57.59,57.59,0,0,1,9.08-8.51Q516,42,519,42.07a5.66,5.66,0,0,1,2.58.58,3.52,3.52,0,0,1,1.62,1.61,4.84,4.84,0,0,1,.56,1.77,29.55,29.55,0,0,1,.08,3.07V78.43h6.84V53.13l1.92-2a47.08,47.08,0,0,1,7.85-6.92,11.2,11.2,0,0,1,6.13-2.12,5.66,5.66,0,0,1,2.58.58,3.51,3.51,0,0,1,1.62,1.61,4.84,4.84,0,0,1,.56,1.77,30,30,0,0,1,.08,3.07V78.43h6.84" transform="translate(-0.62 -0.15)"/><path class="h" d="M590.59,68.11A46.42,46.42,0,0,1,584,72.37a9.7,9.7,0,0,1-4.51,1A5.7,5.7,0,0,1,575.39,72,5.3,5.3,0,0,1,573.87,68a8.29,8.29,0,0,1,.22-2.14,10.7,10.7,0,0,1,1-2.34l15.54-4v8.58m10.31,5.76q-3.13-.55-3.38-2.19V46.28a9.12,9.12,0,0,0-3.64-7.55Q590.31,36,584,36q-6.75.06-10.77,2.55a7.79,7.79,0,0,0-4.12,6.66,4.62,4.62,0,0,0,.13,1.24,5.49,5.49,0,0,0,.6,1.31l6.94-1.46a7.51,7.51,0,0,1-.29-0.88,2.82,2.82,0,0,1-.08-0.67A2.88,2.88,0,0,1,578,42.05a9.87,9.87,0,0,1,4.76-.89,10.88,10.88,0,0,1,5.92,1.29,4.27,4.27,0,0,1,1.94,3.83v7.49l-14.35,3.38a12.16,12.16,0,0,0-6.87,4A11.65,11.65,0,0,0,567,68.66a10.76,10.76,0,0,0,3,7.89,11.17,11.17,0,0,0,8,3,17.53,17.53,0,0,0,4.53-.64,18.49,18.49,0,0,0,4.25-1.73,13.61,13.61,0,0,0,1.92-1.23q0.94-.72,2.47-2.05a5.34,5.34,0,0,0,2,4.2q1.82,1.31,6,1.54Z" transform="translate(-0.62 -0.15)"/><path class="g" d="M641.26,75.24l-3.56-5.39a17.32,17.32,0,0,1-4.74,2.7,15.3,15.3,0,0,1-5.22.78q-6.72-.08-10.54-4.16t-3.89-11.28q0.09-7.1,3.83-11.35a13,13,0,0,1,10.06-4.36,13.16,13.16,0,0,1,4.86.79,15.89,15.89,0,0,1,4.45,2.78l3.93-5.57A25.76,25.76,0,0,0,637,38a17.37,17.37,0,0,0-3.39-1.21,23,23,0,0,0-6.12-.82q-9.68.17-15.58,6.24t-6.06,16q0.14,9.67,5.86,15.45T627,79.61a25.22,25.22,0,0,0,6-.73,23.31,23.31,0,0,0,5.48-2.1,25.38,25.38,0,0,0,2.74-1.55" transform="translate(-0.62 -0.15)"/><path class="h" d="M654.51,22.63a4.48,4.48,0,1,0-1.31,3.16,4.46,4.46,0,0,0,1.31-3.16m-1.1,55.8V37.06h-6.84V78.43h6.84Z" transform="translate(-0.62 -0.15)"/><path class="h" d="M694.23,18.16h-8L678.33,33h6l9.87-14.89M695,57.79a17.58,17.58,0,0,1-3.73,11.15,11.53,11.53,0,0,1-18.38,0,17.52,17.52,0,0,1-3.75-11.15,17.51,17.51,0,0,1,3.75-11.15,11.52,11.52,0,0,1,18.38,0A17.57,17.57,0,0,1,695,57.79Zm7.48,0a22.75,22.75,0,0,0-2.8-11A21.53,21.53,0,0,0,692.31,39a19.07,19.07,0,0,0-20.53,0,21.51,21.51,0,0,0-7.35,7.85,22.81,22.81,0,0,0,0,21.91,21.67,21.67,0,0,0,7.35,7.87,19,19,0,0,0,20.53,0,21.68,21.68,0,0,0,7.33-7.87A22.68,22.68,0,0,0,702.44,57.79Z" transform="translate(-0.62 -0.15)"/><path class="g" d="M745,78.43v-31q0-5.81-2.69-8.66T734.13,36a17,17,0,0,0-5.8,1.06,17.34,17.34,0,0,0-5.25,3,31,31,0,0,0-2.52,2.25q-1.12,1.11-3.14,3.41V37.06h-6.84V78.43h6.84V53.13a57.54,57.54,0,0,1,9.08-8.51q3.74-2.6,6.82-2.55a5.66,5.66,0,0,1,2.58.58,3.51,3.51,0,0,1,1.62,1.61,7.86,7.86,0,0,1,.49,1.84,21.72,21.72,0,0,1,.15,3V78.43H745" transform="translate(-0.62 -0.15)"/></g></svg>