<svg xmlns="http://www.w3.org/2000/svg" xmlns:xlink="http://www.w3.org/1999/xlink" viewBox="0 0 644.11 111.06"><defs><style>.a{fill:none;}.b{clip-path:url(#a);}.c{fill:#d68500;}.c,.d,.e,.f{fill-rule:evenodd;}.d{fill:#5da0cc;}.e{fill:#211915;}.f{fill:#913d45;}</style><clipPath id="a" transform="translate(0 0)"><rect class="a" width="644.12" height="111.06"/></clipPath></defs><title>malagaHoy</title><g class="b"><path class="c" d="M382.61,88.42V42.83a49.43,49.43,0,0,1,64.06,45.6H382.61M397,73.48a11.34,11.34,0,1,0-3.32-8A11.31,11.31,0,0,0,397,73.48Z" transform="translate(0 0)"/><path class="d" d="M382.61,0h64.2V52.23a62.34,62.34,0,0,0-64.2-22.77V0" transform="translate(0 0)"/><path class="e" d="M344.85,25.07c-11.72,0-21.38,4.15-27.78,6.9l-1.08.46,3.93,14.27,1-.33c6.14-1.92,13.78-4.31,20.17-4.31,4.68,0,6.76,1.94,6.76,6.3V50h-9.2c-17.95,0-27,6.95-27,20.65,0,17,14.49,18.31,18.93,18.31,6.93,0,12.47-2.16,16.93-6.6L347.9,82v5.95h20.61V48c0-15.64-7.52-22.92-23.66-22.92m3,45.83-0.6.34c-1.88,1.08-4.73,2.7-8,2.7-4.09,0-6.25-2.13-6.25-6.15,0-4.53,3-6.92,8.81-6.92h6v10Z" transform="translate(0 0)"/><path class="e" d="M312.87,24.63H293.39a24.64,24.64,0,0,1-5.83-.33,50.74,50.74,0,0,0-7.14-.57c-17.45,0-27.06,7.58-27.06,21.35,0,10.13,5.93,14.95,8.48,16.55l0.31,0.19-0.32.18c-4.76,2.74-7.17,6.63-7.17,11.53A10.51,10.51,0,0,0,260,83.16l0.33,0.2-0.34.18c-5.46,2.91-8.11,7-8.11,12.37,0,10,9.86,15.14,29.31,15.14,20.79,0,30.89-6.64,30.89-20.3,0-11.37-6.84-17.25-21.54-18.51l-12.93-1.13c-3.06-.25-5.07-0.6-5.07-3.11a4.64,4.64,0,0,1,.81-2.13l0.09-.14,0.16,0a26,26,0,0,0,6.8.75c12.55,0,27.52-3.44,27.52-19.85a10.26,10.26,0,0,0-1.66-6.17L306,40.18l6.83-.31V24.63M273.38,86.75l0.07-.11,11.74,1.15c4.12,0.34,6.67,1.31,6.67,5.11s-3.41,5.88-10.12,5.88c-7,0-10.36-2.08-10.36-6.37A10.42,10.42,0,0,1,273.38,86.75Zm7.2-32.43c-4.89,0-7-2.76-7-9.24,0-6.14,2.35-9.25,7-9.25,4.92,0,7.12,2.85,7.12,9.25S285.57,54.32,280.58,54.32Z" transform="translate(0 0)"/><path class="e" d="M222.7,25.07c-11.74,0-21.4,4.16-27.8,6.91l-1.06.46,3.92,14.27,1-.32c6.14-1.92,13.78-4.31,20.19-4.31,4.67,0,6.75,1.94,6.75,6.3V50h-9.19c-18,0-27.06,6.95-27.06,20.65,0,17,14.49,18.31,18.93,18.31,6.94,0,12.48-2.16,16.93-6.6l0.38-.38v5.95h20.62V48c0-15.64-7.52-22.92-23.66-22.92m3,45.83-0.57.32c-1.89,1.08-4.74,2.71-8,2.71-4.09,0-6.25-2.13-6.25-6.15,0-4.53,3-6.92,8.82-6.92h6v10Z" transform="translate(0 0)"/><path class="e" d="M183.09,0.12v87.8H162.48V0.12h20.61" transform="translate(0 0)"/><path class="e" d="M146.63,0.12l-8.4,16H117.74l6.86-16h22" transform="translate(0 0)"/><path class="e" d="M130.64,25.07c-11.74,0-21.41,4.16-27.8,6.91l-1.06.46,3.92,14.27,1-.32c6.14-1.92,13.78-4.31,20.19-4.31,4.67,0,6.75,1.94,6.75,6.3V50h-9.2c-17.95,0-27,6.95-27,20.65,0,17,14.49,18.31,18.93,18.31,6.94,0,12.48-2.16,16.93-6.6l0.38-.38v5.95H154.3V48c0-15.64-7.52-22.92-23.66-22.92m3,45.83-0.59.34c-1.88,1.08-4.73,2.7-8,2.7-4.09,0-6.25-2.13-6.25-6.15,0-4.53,3-6.92,8.81-6.92h6v10Z" transform="translate(0 0)"/><path class="e" d="M92.1,0.12v87.8H70.66V36.76l-0.43-.07L53.85,87.92H38.26L21.88,36.7l-0.43.07V87.92H0V0.12H28.92l17.2,50,17.2-50H92.1" transform="translate(0 0)"/><path class="f" d="M644.11,27.46l-18,49.95c-7.76,21.67-17.14,29.66-38.52,32.75l-4.15-14.25c9.47-2.86,15-6.84,17.25-12.49l1.24-3-20.3-52.95h22.83l8.69,28.73,8.42-28.73h22.57" transform="translate(0 0)"/><path class="f" d="M551.79,24.93c-20.29,0-31.92,11.65-31.92,32s11.64,32,31.92,32c20,0,31.92-12,31.92-32,0-20.31-11.63-32-31.92-32m0,47.86c-6.95,0-10.47-5.35-10.47-15.9S544.74,41,551.79,41s10.47,5.2,10.47,15.89S558.83,72.79,551.79,72.79Z" transform="translate(0 0)"/><path class="f" d="M479.67,0V33.4l0.63-.58c3-2.76,8.47-7.89,17.77-7.89,10.13,0,15.93,6.85,15.93,18.78V87.83H493.37V50.58c0-3.91-1.8-5.9-5.36-5.9-3.36,0-6.53,1.91-8.23,2.94l-0.11.06V87.83H459.06V0h20.61" transform="translate(0 0)"/></g></svg>