<?xml version="1.0" encoding="utf-8"?>
<!-- Generator: Adobe Illustrator 23.0.6, SVG Export Plug-In . SVG Version: 6.00 Build 0)  -->
<svg version="1.1" id="Capa_1" xmlns="http://www.w3.org/2000/svg" xmlns:xlink="http://www.w3.org/1999/xlink" x="0px" y="0px"
	 width="488.333px" height="54.947px" viewBox="0 0 488.333 54.947" style="enable-background:new 0 0 488.333 54.947;"
	 xml:space="preserve">
<style type="text/css">
	.st0{fill:#B41A00;}
	.st1{fill:#3255AE;stroke:#3255AE;stroke-miterlimit:10;}
</style>
<g>
	<g>
		<rect x="0.5" y="9.634" class="st0" width="20.833" height="11.917"/>
		<path class="st0" d="M20.833,10.134v10.917H1V10.134H20.833 M21.833,9.134H0v12.917h21.833V9.134L21.833,9.134z"/>
	</g>
	<g>
		<path class="st1" d="M16.533,21.89c2.416-2.602,4.78-3.682,7.878-3.682c3.781,0,8.823,2.013,8.823,8.688v14.383h-7.615V27.485
			c0-3.19-1.628-4.516-3.782-4.516c-1.891,0-3.309,0.933-5.305,3.73v14.579H8.917V18.65h7.615v3.24H16.533z"/>
		<path class="st1" d="M52.036,41.721c-7.931,0-13.708-4.663-13.708-11.78c0-7.707,6.565-11.732,13.708-11.732
			c5.935,0,13.603,3.093,13.603,11.781C65.639,38.973,57.393,41.721,52.036,41.721z M52.036,22.43c-3.309,0-5.567,2.405-5.567,7.511
			c0,5.841,2.679,7.56,5.567,7.56c3.571,0,5.462-2.749,5.462-7.707C57.498,25.375,55.87,22.43,52.036,22.43z"/>
		<path class="st1" d="M88.117,23.51h-8.824v9.326c0,2.209,1.366,3.633,3.729,3.633c1.576,0,3.046-0.344,5.095-1.325v5.154
			c-2.679,1.03-4.674,1.423-7.038,1.423c-5.042,0-9.401-2.159-9.401-8.492V23.51h-3.466v-1.375l10.136-10.603h0.945v7.118h8.824
			V23.51z"/>
		<path class="st1" d="M100.196,11.287c0,2.159-1.891,3.927-4.202,3.927s-4.202-1.768-4.202-3.927c0-2.16,1.891-3.928,4.202-3.928
			S100.196,9.127,100.196,11.287z M99.828,41.279h-7.616V18.65h7.616V41.279z"/>
		<path class="st1" d="M127.453,40.199c-3.046,1.031-5.62,1.521-8.193,1.521c-8.508,0-14.023-4.614-14.023-11.683
			c0-6.921,5.725-11.83,13.708-11.83c2.469,0,5.62,0.589,8.141,1.473v5.302c-1.996-0.981-4.307-1.521-6.198-1.521
			c-4.569,0-7.51,2.552-7.51,6.528c0,4.025,2.889,6.676,7.248,6.676c1.838,0,3.466-0.393,6.828-1.57L127.453,40.199L127.453,40.199z
			"/>
		<path class="st1" d="M140.688,11.287c0,2.159-1.891,3.927-4.202,3.927s-4.202-1.768-4.202-3.927c0-2.16,1.891-3.928,4.202-3.928
			S140.688,9.127,140.688,11.287z M140.32,41.279h-7.616V18.65h7.616V41.279z"/>
		<path class="st1" d="M171.518,39.659c-2.101,1.179-5.095,2.062-7.143,2.062c-2.521,0-3.729-0.736-4.254-2.552
			c-2.941,1.865-5.357,2.552-7.983,2.552c-3.886,0-6.775-2.699-6.775-5.547c0-5.399,4.254-6.479,14.391-9.425
			c0.157-2.11-0.893-3.779-4.202-3.779c-3.046,0-6.513,1.473-8.929,3.779v-5.792c3.151-1.816,6.67-2.749,10.504-2.749
			c6.092,0,10.241,1.915,10.241,6.872v10.309c0,1.129,0.473,1.571,1.261,1.571c0.525,0,1.103-0.099,2.889-1.276V39.659z
			 M159.753,30.333c-4.517,1.521-6.67,2.503-6.67,4.762c0,1.325,1.103,2.405,2.469,2.405c1.418,0,2.941-0.639,4.202-1.719
			L159.753,30.333L159.753,30.333z"/>
		<path class="st1" d="M191.316,24.934c-3.309-1.915-6.565-2.504-8.088-2.504c-0.998,0-2.731,0.196-2.731,1.768
			c0,2.503,12.027,2.602,12.027,10.161c0,4.712-3.571,7.362-9.874,7.362c-3.886,0-7.615-1.129-8.666-1.669v-5.007
			c2.469,0.982,4.937,1.915,7.826,1.915c2.258,0,3.677-0.639,3.677-1.669c0-3.289-12.027-2.7-12.027-10.112
			c0-4.173,4.044-6.971,10.031-6.971c3.046,0,5.305,0.491,7.826,1.669v5.057H191.316z"/>
		<path class="st1" d="M236.063,41.279h-7.616v-1.816c-2.153,1.62-4.149,2.258-6.723,2.258c-6.513,0-11.344-5.007-11.344-11.78
			c0-6.922,4.832-11.732,11.765-11.732c2.206,0,4.254,0.491,6.302,1.424V7.802h7.616V41.279z M228.447,24.295
			c-1.103-0.736-2.889-1.325-4.254-1.325c-3.834,0-6.093,2.602-6.093,7.117c0,4.124,2.259,6.873,5.83,6.873
			c1.628,0,2.941-0.54,4.517-1.865V24.295z"/>
		<path class="st1" d="M265.945,38.727c-4.358,2.994-8.928,2.994-10.818,2.994c-8.509,0-14.023-4.614-14.023-11.683
			c0-6.921,5.305-11.83,12.763-11.83c7.037,0,12.867,4.663,12.5,12.91h-17.385c0.263,4.025,3.204,6.382,7.983,6.382
			c3.046,0,5.409-0.835,8.98-3.24V38.727z M259.644,27.388c-0.315-3.093-2.312-4.958-5.252-4.958c-2.994,0-4.938,1.816-5.253,4.958
			H259.644z"/>
		<path class="st1" d="M323.034,41.279h-7.511l-19.8-21.451v21.451h-8.929V7.802h8.193l19.117,20.47V7.802h8.929L323.034,41.279
			L323.034,41.279z"/>
		<path class="st1" d="M354.966,39.659c-2.101,1.179-5.095,2.062-7.143,2.062c-2.521,0-3.729-0.736-4.255-2.552
			c-2.94,1.865-5.356,2.552-7.982,2.552c-3.887,0-6.775-2.699-6.775-5.547c0-5.399,4.254-6.479,14.391-9.425
			c0.157-2.11-0.893-3.779-4.202-3.779c-3.046,0-6.513,1.473-8.928,3.779v-5.792c3.15-1.816,6.67-2.749,10.504-2.749
			c6.092,0,10.241,1.915,10.241,6.872v10.309c0,1.129,0.473,1.571,1.261,1.571c0.525,0,1.103-0.099,2.889-1.276L354.966,39.659
			L354.966,39.659z M343.201,30.333c-4.517,1.521-6.67,2.503-6.67,4.762c0,1.325,1.103,2.405,2.468,2.405
			c1.418,0,2.941-0.639,4.202-1.719L343.201,30.333L343.201,30.333z"/>
		<path class="st1" d="M353.232,18.65h8.141l5.146,12.468l5.2-12.468h8.088l-11.135,23.07h-4.254L353.232,18.65z"/>
		<path class="st1" d="M407.801,39.659c-2.101,1.179-5.095,2.062-7.143,2.062c-2.521,0-3.729-0.736-4.255-2.552
			c-2.94,1.865-5.356,2.552-7.982,2.552c-3.887,0-6.775-2.699-6.775-5.547c0-5.399,4.254-6.479,14.391-9.425
			c0.157-2.11-0.893-3.779-4.202-3.779c-3.046,0-6.513,1.473-8.928,3.779v-5.792c3.15-1.816,6.67-2.749,10.504-2.749
			c6.092,0,10.241,1.915,10.241,6.872v10.309c0,1.129,0.473,1.571,1.261,1.571c0.525,0,1.103-0.099,2.889-1.276L407.801,39.659
			L407.801,39.659z M396.036,30.333c-4.517,1.521-6.67,2.503-6.67,4.762c0,1.325,1.103,2.405,2.468,2.405
			c1.418,0,2.941-0.639,4.202-1.719L396.036,30.333L396.036,30.333z"/>
		<path class="st1" d="M418.776,25.13h0.105c2.258-4.713,4.779-6.922,7.721-6.922c1.522,0,2.836,0.54,5.042,2.062l-2.102,6.283
			c-1.995-1.178-3.309-1.669-4.517-1.669c-2.783,0-4.569,2.455-6.25,6.627v9.769h-7.615V18.65h7.615L418.776,25.13L418.776,25.13z"
			/>
		<path class="st1" d="M441.779,25.13h0.105c2.258-4.713,4.779-6.922,7.721-6.922c1.522,0,2.836,0.54,5.042,2.062l-2.102,6.283
			c-1.995-1.178-3.309-1.669-4.517-1.669c-2.783,0-4.569,2.455-6.25,6.627v9.769h-7.615V18.65h7.615L441.779,25.13L441.779,25.13z"
			/>
		<path class="st1" d="M482.221,39.659c-2.101,1.179-5.095,2.062-7.143,2.062c-2.521,0-3.729-0.736-4.255-2.552
			c-2.94,1.865-5.356,2.552-7.982,2.552c-3.887,0-6.775-2.699-6.775-5.547c0-5.399,4.254-6.479,14.391-9.425
			c0.157-2.11-0.893-3.779-4.202-3.779c-3.046,0-6.513,1.473-8.928,3.779v-5.792c3.15-1.816,6.67-2.749,10.504-2.749
			c6.092,0,10.241,1.915,10.241,6.872v10.309c0,1.129,0.473,1.571,1.261,1.571c0.525,0,1.103-0.099,2.889-1.276L482.221,39.659
			L482.221,39.659z M470.456,30.333c-4.517,1.521-6.67,2.503-6.67,4.762c0,1.325,1.103,2.405,2.468,2.405
			c1.418,0,2.941-0.639,4.202-1.719L470.456,30.333L470.456,30.333z"/>
	</g>
</g>
</svg>
