<?xml version="1.0" encoding="utf-8"?>
<!-- Generator: Adobe Illustrator 23.0.2, SVG Export Plug-In . SVG Version: 6.00 Build 0)  -->
<svg version="1.1" id="Capa_1" xmlns="http://www.w3.org/2000/svg" xmlns:xlink="http://www.w3.org/1999/xlink" x="0px" y="0px"
	 viewBox="0 0 191.7 73.4" style="enable-background:new 0 0 191.7 73.4;" xml:space="preserve">
<style type="text/css">
	.st0{fill:#E43526;}
	.st1{fill:#0A77A5;}
	.st2{fill:#F7E828;}
	.st3{fill:#F8E825;}
</style>
<path id="DEPORTE_8_" class="st0" d="M138.1,47.4h7.2l-0.5,2.2h-4.5l-0.4,1.6h4.2l-0.5,2.1h-4.2l-0.5,2h4.7l-0.5,2.3h-7.4
	L138.1,47.4z M127.5,49.9h2.7l-1.7,7.8h2.7l1.7-7.8h2.8l0.6-2.6h-8.2L127.5,49.9z M119.1,57.7l0.9-4.2h0.2c0.2,0,0.5,0.1,0.6,0.2
	c0.1,0.1,0.2,0.4,0.3,0.8l0.7,3.2h3l-0.6-3c0-0.2-0.1-0.4-0.2-0.6c-0.1-0.3-0.2-0.5-0.3-0.5c-0.1-0.1-0.3-0.3-0.6-0.4
	c0.4-0.1,0.8-0.2,1-0.4c0.4-0.3,0.8-0.6,1.1-1c0.3-0.4,0.5-0.9,0.6-1.5c0.1-0.7,0.1-1.2,0-1.7c-0.2-0.5-0.5-0.8-0.9-0.9
	c-0.4-0.2-1-0.3-1.9-0.3h-4.5l-2.3,10.4L119.1,57.7L119.1,57.7z M120.9,49.5h1.2c0.5,0,0.8,0.1,0.9,0.3s0.2,0.4,0.1,0.8
	c-0.1,0.2-0.2,0.4-0.3,0.6c-0.2,0.2-0.3,0.3-0.5,0.3c-0.4,0.1-0.6,0.1-0.7,0.1h-1.1L120.9,49.5z M106.4,52.6c-0.3,1.2-0.3,2.2-0.1,3
	c0.2,0.8,0.6,1.4,1.2,1.8c0.6,0.4,1.3,0.6,2.3,0.6s1.8-0.2,2.6-0.6c0.7-0.4,1.4-1,1.9-1.8s0.9-1.8,1.2-3c0.4-1.7,0.3-3-0.3-3.9
	c-0.6-0.9-1.6-1.4-3-1.4s-2.6,0.5-3.6,1.4C107.4,49.5,106.7,50.9,106.4,52.6 M109.1,52.6c0.2-1.1,0.6-1.8,1-2.3s0.9-0.7,1.5-0.7
	s1,0.2,1.2,0.7s0.2,1.2,0,2.1c-0.3,1.2-0.6,2-1,2.4s-0.9,0.7-1.5,0.7s-1-0.2-1.2-0.7C108.8,54.4,108.8,53.6,109.1,52.6 M96.1,57.7
	h2.7l0.8-3.9h1.5c1.1,0,2-0.3,2.6-0.9c0.7-0.6,1.1-1.4,1.3-2.5c0.2-1,0.2-1.8-0.2-2.4c-0.4-0.6-1-0.8-2-0.8h-4.5L96.1,57.7z
	 M100.6,49.5h0.8c0.5,0,0.8,0.1,1,0.3c0.1,0.2,0.2,0.5,0.1,0.8s-0.2,0.6-0.5,0.8s-0.6,0.3-1.2,0.3h-0.7L100.6,49.5z M86.6,57.7H94
	l0.5-2.3h-4.7l0.5-2h4.2l0.5-2.1h-4.2l0.4-1.6h4.5l0.5-2.2H89L86.6,57.7z M76.5,57.7h4c0.5,0,1-0.1,1.7-0.3c0.5-0.1,0.9-0.4,1.4-0.8
	c0.5-0.4,0.9-0.9,1.2-1.5c0.3-0.6,0.6-1.5,0.9-2.6c0.2-0.7,0.2-1.4,0.2-2s-0.1-1.2-0.3-1.7c-0.2-0.5-0.5-0.8-1-1.1
	c-0.4-0.3-1-0.4-1.8-0.4h-4L76.5,57.7z M81.7,49.7c0.7,0,1.2,0.2,1.4,0.6c0.2,0.4,0.2,1.2,0,2.3c-0.2,0.8-0.4,1.4-0.6,1.8
	c-0.2,0.4-0.5,0.6-0.7,0.8c-0.3,0.1-0.7,0.2-1.3,0.2h-0.7l1.2-5.7C81,49.7,81.7,49.7,81.7,49.7z"/>
<g id="FRANJAS_8_">
	<polygon class="st0" points="62.8,63 56.7,63 60.2,47.4 66.3,47.4 	"/>
	<path class="st1" d="M55.6,47.4c-1.8,0-3.4,1.1-4,2.6l-5.2,23.5h6l5.8-26.1H55.6z"/>
	<path class="st2" d="M68.6,57.8c1.8,0,3.4-1.1,4-2.6l1.7-7.8h-6L66,57.8H68.6z"/>
</g>
<path id="SUPER_8_" class="st3" d="M32.9,13.8c-4-5.6-11.6-5.2-13.2-2.8c-2.2,3.4,2.9,4.5,2.9,4.5c6.8,1.8,10.4,3.1,10.4,3.1
	c9.5,3.9,5.5,13,5.5,13c-5.2,14.2-22.6,12.9-22.6,12.9C7,44.6,0,37.2,0,37.2l9.9-7.6c3.2,4.1,7.4,4.9,7.4,4.9
	c7.9,1.5,8.9-2.2,8.9-2.2c1.2-2.8-4.3-3.8-4.3-3.8c-9.8-2.5-11.5-3.2-14.1-6C5.2,19.6,6.6,14,6.6,14C8.7,2.9,20.2,0.8,20.2,0.8
	C37.5-2.6,42.7,6,42.7,6l-9.8,7.6 M48.3,0.7l-6.5,29.9c0,0-3.2,14.3,15.8,13.9c0,0,16.5,0.6,20.1-15s6.6-28.8,6.6-28.8H71.2L65,28.6
	c0,0-0.6,6.3-6.6,5.5c0,0-3.8-0.1-2.4-6.6c1.5-6.8,6-26.8,6-26.8S48.3,0.7,48.3,0.7z M156,0.7h-31l-9.7,43.1h30.9l2.8-11.9h-17.6
	l1.1-5.4l12.1-0.1l2-9.3h-11.9l1.3-6.5h17.6L156,0.7z M191.7,10.9c0,10.4-9.3,14.3-10.5,14.7l5.8,18.1h-14.4l-4.7-16.1h-1.3
	L163,43.8h-13.7L159,0.7h19.9C178.9,0.7,191.7,0.5,191.7,10.9 M174.7,18.4c1.4-0.7,3.3-3.2,3-6c-0.3-2.9-4.4-2.7-4.4-2.7H170
	l-2.2,9.5h3.1C172.5,19.2,173.3,19,174.7,18.4 M106.4,0.7c0,0,15.8-0.1,12.7,13.4c-3.1,13.5-14.2,14.3-24.6,14.5l-3.4,15.3H77.5
	l9.7-43.1L106.4,0.7 M102.7,18.3c1.4-0.7,3.2-3.2,2.9-6c-0.3-2.9-4.2-2.7-4.2-2.7h-3.2l-2.1,9.5h3C100.6,19.2,101.4,19,102.7,18.3"
	/>
</svg>
